Coordinates
version=1
nRows=14
nColumns=36
inDegrees=yes

Units are S.I. units (second, meters, Newtons, ...)
If the header above contains a line with 'inDegrees', this indicates whether rotational values are in degrees (yes) or radians (no).

endheader
time	pelvis_tilt	pelvis_list	pelvis_rotation	pelvis_tx	pelvis_ty	pelvis_tz	hip_flexion_r	hip_adduction_r	hip_rotation_r	knee_angle_r	knee_angle_r_beta	ankle_angle_r	subtalar_angle_r	mtp_angle_r	hip_flexion_l	hip_adduction_l	hip_rotation_l	knee_angle_l	knee_angle_l_beta	ankle_angle_l	subtalar_angle_l	mtp_angle_l	lumbar_extension	lumbar_bending	lumbar_rotation	arm_flex_r	arm_add_r	arm_rot_r	elbow_flex_r	pro_sup_r	arm_flex_l	arm_add_l	arm_rot_l	elbow_flex_l	pro_sup_l
      1.54000000	     -3.07382720	     -1.50177035	      4.83863989	     -0.37388568	      0.85712190	     -0.57842877	     51.43651036	      2.29276176	     -1.17923563	     75.86649860	      1.32412019	     24.22520007	    -20.50770138	     -7.45773442	     52.65203733	     -1.97407294	      3.00449281	     75.54192064	      1.31845524	     25.56283700	    -10.79536113	     -7.45773442	    -20.86400047	      2.92386747	     -9.29385675	     23.85734636	    -24.49781436	     10.36359316	    109.93480151	    113.24473385	     -6.90080116	    -29.98106383	    -14.28518296	    115.36850742	    104.88070489
      1.55000000	     -3.78813856	     -1.59443241	      4.75615090	     -0.37321458	      0.85719908	     -0.57855218	     52.09350211	      2.45800270	     -1.01864573	     75.70106491	      1.32123283	     24.06572943	    -20.51180668	     -7.45816836	     53.28565637	     -2.08382209	      2.92318480	     75.37436553	      1.31553085	     25.51418047	    -10.68536001	     -7.45816836	    -20.94193257	      2.95551116	     -9.37347591	     23.99260655	    -23.97268807	      9.01571656	    110.15797263	    113.12614052	     -7.42447398	    -30.27632687	    -15.94992009	    115.68601366	    104.71564786
      1.56000000	     -4.37559981	     -1.58455641	      4.77603674	     -0.37245395	      0.85788652	     -0.57910446	     52.53627445	      2.43592132	     -0.85918304	     75.47860304	      1.31735014	     23.92928516	    -20.53258143	     -7.45848068	     53.69048138	     -1.93812257	      2.93389779	     75.07736146	      1.31034715	     25.45597420	    -10.66490518	     -7.45848068	    -21.16693862	      2.95780068	     -9.52701541	     23.65275902	    -23.44635117	      7.57722982	    110.33730612	    113.00774929	     -8.08537747	    -30.40725257	    -17.60822451	    115.57760996	    104.53447684
      1.57000000	     -5.02422599	     -1.52899176	      4.81563135	     -0.37175933	      0.85848157	     -0.57970238	     53.06638228	      2.35533646	     -0.68554426	     75.27249227	      1.31375283	     23.66654425	    -20.72794371	     -7.46434857	     54.15339305	     -1.71230832	      2.92701538	     74.76013898	      1.30481057	     25.18305353	    -10.90291893	     -7.46434857	    -21.42228917	      2.88553607	    -10.42022256	     23.70248571	    -22.43747290	      6.77124457	    109.89268573	    112.96537633	    -10.03121452	    -30.21521624	    -20.39222152	    116.16159116	    103.10064745
      1.58000000	     -5.69947535	     -1.53176177	      4.85813648	     -0.37096331	      0.85918476	     -0.58020095	     53.58219492	      2.32829641	     -0.55616324	     75.00342311	      1.30905668	     23.37582853	    -20.97449326	     -7.46717976	     54.63608017	     -1.52240095	      2.99414921	     74.43016050	      1.29905136	     25.01174283	    -11.07642877	     -7.46717976	    -21.59733295	      2.84642613	    -10.35550333	     22.43589788	    -21.84041735	      4.84461428	    110.15795149	    112.71357160	    -10.73653648	    -30.16597120	    -21.45313903	    115.52254534	    102.30365058
      1.59000000	     -6.43380378	     -1.57647927	      4.86768923	     -0.37017048	      0.85969970	     -0.58058676	     54.15312245	      2.37454168	     -0.40042930	     74.73099046	      1.30430184	     23.25657577	    -21.04143034	     -7.46985530	     55.19548638	     -1.34246840	      3.13615630	     74.12962121	      1.29380596	     24.82162531	    -11.29848877	     -7.46985530	    -21.72451951	      2.82930583	    -10.19349745	     20.90991354	    -21.27933008	      2.95864506	    110.39263539	    112.43390620	    -11.47475712	    -29.98715440	    -22.33455015	    114.60198907	    101.34847347
      1.60000000	     -7.24552609	     -1.65154108	      4.79864816	     -0.36941588	      0.85989778	     -0.58069405	     54.84145208	      2.51993193	     -0.21206186	     74.49890050	      1.30025110	     23.15785590	    -21.04673937	     -7.47348101	     55.85539576	     -1.25242644	      3.26647433	     73.85383525	      1.28899259	     24.59569711	    -11.56440712	     -7.47348101	    -21.73404906	      2.80276043	     -9.79288147	     19.18001090	    -20.75982130	      1.01758571	    110.50696361	    112.90872409	    -12.02535675	    -29.73368749	    -22.70406339	    113.27373977	    100.53947316
      1.61000000	     -8.10966641	     -1.75136825	      4.69821853	     -0.36873068	      0.85976808	     -0.58060770	     55.60956367	      2.70482036	     -0.05961729	     74.29572335	      1.29670499	     23.20615692	    -20.96544184	     -7.47852397	     56.61633242	     -1.21773965	      3.40648961	     73.66104377	      1.28562774	     24.45372622	    -11.72666673	     -7.47852397	    -21.69941204	      2.76263887	     -9.16093369	     17.20958529	    -20.17006560	     -1.21499497	    110.58807683	    113.06622602	    -12.33320551	    -29.46547112	    -22.63944478	    111.65350052	     99.61882867
      1.62000000	     -8.99532245	     -1.81850004	      4.59037104	     -0.36813336	      0.85937397	     -0.58068497	     56.44785138	      2.80589864	      0.03841361	     74.13577187	      1.29391331	     22.97794970	    -21.11742838	     -7.48090027	     57.42416418	     -1.17076382	      3.48162434	     73.49780432	      1.28277868	     24.32184919	    -11.90863613	     -7.48090027	    -21.64738509	      2.70763931	     -8.75492153	     15.51284594	    -19.42797373	     -3.06105585	    110.26159796	    112.97615311	    -12.84397855	    -29.03943284	    -22.72007047	    109.86977659	     98.47583969
      1.63000000	     -9.84459261	     -1.91169498	      4.53746744	     -0.36759585	      0.85869979	     -0.58121850	     57.26433072	      2.79709672	      0.02827564	     74.01903257	      1.29187583	     23.00249842	    -21.10575637	     -7.48253324	     58.23923819	     -1.03506833	      3.64195425	     73.41370431	      1.28131086	     24.27823332	    -12.13766429	     -7.48253324	    -21.63991501	      2.73360957	     -8.45844305	     13.87854705	    -18.65509311	     -4.76085820	    109.70750749	    112.28602607	    -13.30504613	    -28.33975811	    -22.84727260	    107.95848223	     97.24901657
      1.64000000	    -10.74391599	     -1.94074870	      4.44349124	     -0.36701365	      0.85759500	     -0.58195784	     58.19050470	      2.70597388	      0.06577846	     74.03080400	      1.29208128	     23.21508728	    -20.67015912	     -7.48360725	     59.11468238	     -0.82603858	      3.76505415	     73.38632600	      1.28083301	     24.08860676	    -12.57983406	     -7.48360725	    -21.53151892	      2.72677031	     -7.56225420	     11.76535481	    -18.04766292	     -7.02592109	    109.26130699	    112.56512376	    -12.86802823	    -27.80970086	    -21.76018872	    105.12868276	     97.59023072
      1.65000000	    -11.41857158	     -2.01931002	      4.27373302	     -0.36636182	      0.85643122	     -0.58238515	     58.89862478	      2.75843461	      0.06357722	     74.05963942	      1.29258455	     23.26479902	    -20.61401003	     -7.48372017	     59.79167651	     -0.80301557	      3.85523333	     73.45731578	      1.28207202	     24.27906145	    -12.71376195	     -7.48372017	    -21.70391655	      2.75846531	     -7.50996591	     10.81715325	    -17.04582176	     -8.01864095	    107.74162499	    112.40282514	    -13.54670789	    -26.89755411	    -22.02047342	    102.73655181	     97.35577175
      1.66000000	    -12.14959503	     -2.01926067	      4.00056420	     -0.36565846	      0.85477674	     -0.58252018	     59.73651914	      2.84894197	      0.16687044	     74.19664889	      1.29497582	     23.36037066	    -20.49313003	     -7.48384489	     60.56092573	     -0.86761209	      3.79120712	     73.62125925	      1.28493337	     24.39643187	    -12.80300641	     -7.48384489	    -21.75947239	      2.65028118	     -7.30945067	      9.99174742	    -16.00449463	     -8.95373134	    105.79074825	    112.20407573	    -13.93343017	    -25.97962715	    -21.85281999	     99.94554798	     97.09080849
      1.67000000	    -12.80737944	     -2.00572578	      3.72602972	     -0.36498741	      0.85270145	     -0.58266942	     60.54745467	      2.92553756	      0.23692463	     74.43186085	      1.29908104	     23.52664402	    -20.37855307	     -7.48395501	     61.32464175	     -0.92433177	      3.73022981	     73.91476901	      1.29005609	     24.54730950	    -12.94394440	     -7.48395501	    -21.88608960	      2.53362641	     -7.08166522	      9.31008033	    -15.00532004	     -9.79444618	    103.59017768	    111.99171862	    -14.05553773	    -25.09836344	    -21.45366041	     96.83640958	     96.77879773
